<?xml version="1.0" encoding="UTF-8" standalone="no"?>
<!-- Created with Inkscape (http://www.inkscape.org/) -->

<svg
   xmlns:dc="http://purl.org/dc/elements/1.1/"
   xmlns:cc="http://creativecommons.org/ns#"
   xmlns:rdf="http://www.w3.org/1999/02/22-rdf-syntax-ns#"
   xmlns:svg="http://www.w3.org/2000/svg"
   xmlns="http://www.w3.org/2000/svg"
   xmlns:sodipodi="http://sodipodi.sourceforge.net/DTD/sodipodi-0.dtd"
   xmlns:inkscape="http://www.inkscape.org/namespaces/inkscape"
   width="299mm"
   height="299mm"
   viewBox="0 0 299 299"
   version="1.1"
   id="svg8"
   inkscape:version="0.92.2 (5c3e80d, 2017-08-06)"
   sodipodi:docname="Artix new logo proposal 1.svg"
   inkscape:export-filename="E:\Projects\Artix Linux logo\ass.png"
   inkscape:export-xdpi="84.949837"
   inkscape:export-ydpi="84.949837">
  <defs
     id="defs2" />
  <sodipodi:namedview
     id="base"
     pagecolor="#ffffff"
     bordercolor="#666666"
     borderopacity="1.0"
     inkscape:pageopacity="0.0"
     inkscape:pageshadow="2"
     inkscape:zoom="0.33413791"
     inkscape:cx="836.34431"
     inkscape:cy="703.64107"
     inkscape:document-units="mm"
     inkscape:current-layer="layer1"
     showgrid="false"
     inkscape:pagecheckerboard="true"
     inkscape:showpageshadow="false"
     inkscape:window-width="1280"
     inkscape:window-height="984"
     inkscape:window-x="-4"
     inkscape:window-y="17"
     inkscape:window-maximized="1" />
  <metadata
     id="metadata5">
    <rdf:RDF>
      <cc:Work
         rdf:about="">
        <dc:format>image/svg+xml</dc:format>
        <dc:type
           rdf:resource="http://purl.org/dc/dcmitype/StillImage" />
        <dc:title></dc:title>
      </cc:Work>
    </rdf:RDF>
  </metadata>
  <g
     inkscape:label="Layer 1"
     inkscape:groupmode="layer"
     id="layer1"
     transform="translate(0,2)">
    <path
       style="fill:#c15862;fill-opacity:1;stroke:none;stroke-width:0.31899744px;stroke-linecap:butt;stroke-linejoin:miter;stroke-opacity:1"
       d="m 193.43827,18.302704 c 0.002,3.100483 -0.0185,2.101315 0.11616,10.007351 0.0921,5.402551 0.20139,14.708955 0.53103,23.875076 0.22994,6.393859 0.4632,17.923499 0.81266,31.227769 0.28837,10.978767 0.59762,34.8718 0.91255,39.05155 0.25029,3.32192 1.23531,25.87552 1.66576,31.24136 0.398,4.96108 2.63918,25.66795 4.23309,36.93767 1.60506,11.3485 5.94086,27.9286 9.00908,38.53892 2.85043,9.85724 7.9773,23.2786 11.47438,31.16589 3.74015,8.43545 14.28723,21.0766 14.28723,21.0766 L 70.053207,281.65276 195.36442,7.9582114 c -1.29677,3.1257196 -0.86009,2.4610536 -1.11704,3.5573186 -0.20283,0.865314 -0.91798,3.727196 -0.80911,6.787174 z"
       id="path841-3-4"
       inkscape:connector-curvature="0"
       sodipodi:nodetypes="csssssssscccsc" />
    <path
       style="fill:#58c18d;fill-opacity:1;stroke:none;stroke-width:0.31899744px;stroke-linecap:butt;stroke-linejoin:miter;stroke-opacity:1"
       d="m 191.63372,21.972523 c -0.49127,3.070649 -0.52678,2.92606 -1.55074,10.639233 -0.74089,5.58097 -1.85494,13.111689 -2.45018,20.589415 -0.49343,6.198653 -2.31315,16.954939 -3.33112,29.664522 -0.8654,10.80456 -3.72014,34.890897 -4.18224,39.130507 -0.36098,3.3117 -3.01183,28.67375 -3.35519,34.04586 -0.31708,4.96107 -0.1482,24.29475 0.43312,34.55186 0.64849,11.4431 4.04106,28.08692 7.10927,38.69724 2.85043,9.85725 7.9773,23.2786 11.47439,31.16589 3.74015,8.43545 11.01837,21.0766 11.01837,21.0766 L 63.45864,281.76152 195.36442,7.9582114 c -2.41646,5.8246296 -2.82496,9.4159776 -3.7307,14.0143116 z"
       id="path841-3"
       inkscape:connector-curvature="0"
       sodipodi:nodetypes="csssssssscccc" />
    <path
       style="fill:#58a5c1;fill-opacity:1;stroke:none;stroke-width:0.31899744px;stroke-linecap:butt;stroke-linejoin:miter;stroke-opacity:1"
       d="m 190.25965,21.910296 c -1.33821,3.895039 -3.41652,9.986426 -4.97468,15.817744 -1.65274,6.185243 -2.00238,6.520588 -5.53414,19.964053 -3.44274,13.104572 -6.21776,22.772781 -9.89168,34.456184 -3.25147,10.340003 -7.82723,27.879093 -8.98219,32.316653 -0.83909,3.22392 -5.66207,26.83242 -6.00543,32.20453 -0.31708,4.96108 -2.40686,26.81072 -1.82555,37.06783 0.64849,11.4431 1.58942,25.02235 4.65762,35.63269 2.85044,9.85724 7.9773,23.27859 11.47439,31.16588 3.74014,8.43546 11.01836,21.07661 11.01836,21.07661 -65.67384,-0.24079 -26.18883,0.0509 -117.608455,0.22821 L 78.433609,249.15521 92.658397,219.81329 195.36442,7.9582114 c -2.41646,5.8246296 -3.28107,8.6122836 -5.10477,13.9520846 z"
       id="path841"
       inkscape:connector-curvature="0"
       sodipodi:nodetypes="csssssssscccccc" />
  </g>
</svg>
