<?xml version="1.0" encoding="UTF-8" standalone="no"?>
<!-- Created with Inkscape (http://www.inkscape.org/) -->

<svg
   xmlns:dc="http://purl.org/dc/elements/1.1/"
   xmlns:cc="http://creativecommons.org/ns#"
   xmlns:rdf="http://www.w3.org/1999/02/22-rdf-syntax-ns#"
   xmlns:svg="http://www.w3.org/2000/svg"
   xmlns="http://www.w3.org/2000/svg"
   xmlns:sodipodi="http://sodipodi.sourceforge.net/DTD/sodipodi-0.dtd"
   xmlns:inkscape="http://www.inkscape.org/namespaces/inkscape"
   width="550mm"
   height="250mm"
   viewBox="0 0 550 250"
   version="1.1"
   id="svg8"
   inkscape:version="0.92.2 (5c3e80d, 2017-08-06)"
   sodipodi:docname="Artix banner #1.svg"
   inkscape:export-filename="E:\Projects\Artix Linux logo\Artix banner #1.png"
   inkscape:export-xdpi="84.949837"
   inkscape:export-ydpi="84.949837">
  <defs
     id="defs2" />
  <sodipodi:namedview
     id="base"
     pagecolor="#ffffff"
     bordercolor="#666666"
     borderopacity="1.0"
     inkscape:pageopacity="0.0"
     inkscape:pageshadow="2"
     inkscape:zoom="0.27412968"
     inkscape:cx="1109.6793"
     inkscape:cy="445.69425"
     inkscape:document-units="mm"
     inkscape:current-layer="layer1"
     showgrid="false"
     inkscape:pagecheckerboard="true"
     inkscape:showpageshadow="false"
     inkscape:window-width="1280"
     inkscape:window-height="984"
     inkscape:window-x="-4"
     inkscape:window-y="17"
     inkscape:window-maximized="1"
     inkscape:measure-start="595.659,79.8813"
     inkscape:measure-end="665.985,79.8813"
     showguides="false" />
  <metadata
     id="metadata5">
    <rdf:RDF>
      <cc:Work
         rdf:about="">
        <dc:format>image/svg+xml</dc:format>
        <dc:type
           rdf:resource="http://purl.org/dc/dcmitype/StillImage" />
        <dc:title />
      </cc:Work>
    </rdf:RDF>
  </metadata>
  <g
     inkscape:label="Layer 1"
     inkscape:groupmode="layer"
     id="layer1"
     transform="translate(0,-47)">
    <path
       style="fill:#404040;fill-opacity:1;stroke:none;stroke-width:0.5415054px;stroke-linecap:butt;stroke-linejoin:miter;stroke-opacity:1"
       d="m 196.48176,149.29564 c -2.57222,2.44686 -4.07065,5.89333 -5.37188,9.19642 -1.27961,3.24832 -2.30485,10.21709 -2.30485,10.21709 L 188.9299,275.864 h 18.26045 c 0,-26.04679 -0.28166,-79.67694 0.13017,-102.86812 0.35009,-0.0163 0.30162,-2.57404 2.00566,-4.91924 0.68336,-0.94042 1.64815,-1.91932 2.82243,-2.69017 0.96711,-0.63484 2.59345,-1.15225 3.75918,-1.49631 2.75162,-0.81218 5.97829,-0.5842 6.51381,-0.5842 7.28139,0 14.21326,0.0208 20.84897,0.0346 1.51468,0.003 2.70246,-0.008 4.04379,0.13597 2.01122,0.21528 3.00107,0.66104 3.69256,1.21556 0.68248,0.69052 1.0757,1.50853 1.41705,2.93486 0.37224,1.55532 0.51222,3.18253 0.51249,3.95207 0.004,9.81942 0.0172,27.17889 0.0172,32.59776 5.56177,0 14.4743,0.0126 17.5177,0.0126 0,-3.821 -0.004,-49.30572 -0.004,-51.17322 0,0 -0.0144,-3.06211 -0.52917,-4.47222 -0.43996,-1.20514 -1.17154,-2.34695 -2.11666,-3.21452 -0.80468,-0.73866 -1.84068,-1.22812 -2.88076,-1.56183 -1.30772,-0.41958 -4.08845,-0.51017 -4.08845,-0.51017 l -42.45262,0.21133 c 0,0 -8.63163,-0.12501 -12.7195,1.0533 -3.3192,0.95687 -6.56622,2.74822 -9.19825,4.77365 z"
       id="path820"
       inkscape:connector-curvature="0"
       sodipodi:nodetypes="csccccsssssscsscccsssccssc" />
    <path
       style="fill:#404040;fill-opacity:1;stroke:none;stroke-width:0.5415054px;stroke-linecap:butt;stroke-linejoin:miter;stroke-opacity:1"
       d="m 320.67422,170.87258 -0.39758,105.5613 18.64045,-0.0303 c 0.1327,-53.83802 0.19504,-86.34575 0.43122,-108.14064 0.005,-0.4036 0.29956,-3.55624 2.49461,-4.78585 1.44094,-0.80719 5.64433,-0.59345 6.21409,-0.61058 l 28.66734,9.3e-4 0.16117,-19.8 -94.97094,0.26919 0.0618,19.93519 30.54504,-0.0537 c 0,0 4.58532,-0.1219 6.25464,0.96871 1.66931,1.09067 1.89802,4.03942 1.89802,4.03942 z"
       id="path822"
       inkscape:connector-curvature="0"
       sodipodi:nodetypes="cccsscccccczcc" />
    <path
       style="fill:#404040;fill-opacity:1;stroke:none;stroke-width:0.5415054px;stroke-linecap:butt;stroke-linejoin:miter;stroke-opacity:1"
       d="m 515.65392,143.21133 -19.42515,0.0935 -29.95734,47.48289 -29.90154,-47.3785 -18.34203,-0.0935 38.80641,64.15783 -38.8855,67.21399 18.29245,-0.0935 30.08291,-50.10857 30.03331,50.00418 19.37556,0.0935 -38.88599,-67.21398 z"
       id="path839"
       inkscape:connector-curvature="0"
       sodipodi:nodetypes="ccccccccccccc" />
    <path
       style="opacity:1;fill:#404040;fill-opacity:1;fill-rule:nonzero;stroke:none;stroke-width:0.72467065;stroke-miterlimit:4;stroke-dasharray:none;stroke-dashoffset:24.5;stroke-opacity:1"
       d="m 387.53956,143.07011 h 19.82901 V 276.6335 h -19.82901 z"
       id="rect858"
       inkscape:connector-curvature="0"
       sodipodi:nodetypes="ccccc" />
    <path
       style="fill:#c8801b;fill-opacity:1;stroke:none;stroke-width:0.5415054px;stroke-linecap:butt;stroke-linejoin:miter;stroke-opacity:1"
       d="m 57.310293,97.966382 c -2.572205,2.446858 -5.128959,5.364178 -6.430183,8.667288 -1.279601,3.24834 -0.802645,11.76199 -0.802645,11.76199 L 49.497978,275.864 h 17.991678 c 0.561457,-25.85783 -0.08157,-142.12049 0.130171,-144.67229 0.14017,-1.68926 1.450981,-2.67774 2.697224,-5.29509 0.853978,-1.79353 2.457205,-4.51175 3.328375,-5.61365 0.839139,-1.06139 3.587463,-3.00835 5.155538,-3.82708 1.985255,-1.03654 5.127515,-1.94053 9.23285,-2.78497 4.088119,0 283.685666,-0.37798 299.378336,-0.34233 l 23.28334,-10.6206 -23.28334,-9.766223 -307.655043,0.256 c 0,0 -9.160749,-0.654177 -13.248595,0.524133 -3.319182,0.95687 -6.431528,2.186752 -9.198199,4.244482 -5e-6,1e-5 -2e-5,0 -2e-5,0 z"
       id="path831"
       inkscape:connector-curvature="0"
       sodipodi:nodetypes="cscccsssscccccssc" />
    <path
       sodipodi:nodetypes="cscccsssscccccssc"
       inkscape:connector-curvature="0"
       id="path833"
       d="m 40.376949,79.218001 c -2.572205,2.44686 -4.070626,5.89333 -5.37185,9.19642 -1.279601,3.24832 -2.304835,10.217088 -2.304835,10.217088 L 32.825131,275.864 h 17.202014 c 0.561457,-25.85783 -0.08157,-161.92722 0.130171,-164.47903 0.14017,-1.68927 0.546129,-3.97471 1.792372,-6.59208 0.853978,-1.79354 2.668337,-3.81805 3.539507,-4.919957 0.839139,-1.061394 3.776821,-3.407369 5.422707,-4.05562 2.19853,-0.86592 5.532738,-1.74456 9.638073,-2.588992 4.088119,0 254.073565,-0.27134 269.766235,-0.23569 l 22.75417,-10.191402 -22.75417,-9.666178 -278.021614,0.256 c 0,0 -8.631582,-0.12501 -12.719428,1.0533 -3.319182,0.95687 -6.32489,2.929194 -9.198199,4.77365 -6e-6,4e-6 -2e-5,0 -2e-5,0 z"
       style="fill:#c33a2e;fill-opacity:1;stroke:none;stroke-width:0.5415054px;stroke-linecap:butt;stroke-linejoin:miter;stroke-opacity:1" />
    <path
       sodipodi:nodetypes="csccccssssccccssc"
       inkscape:connector-curvature="0"
       id="path827"
       d="m 74.772804,119.13314 c -2.572205,2.44686 -3.874463,3.92627 -5.585126,7.03709 -1.520895,2.76574 -2.091559,6.02642 -2.091559,6.02642 L 67.220986,275.864 H 84.423 c 0.561457,-25.85783 0.776674,-109.83944 1.188504,-133.03062 0.350087,-0.0163 0.301617,-2.57404 2.005648,-4.91924 0.683357,-0.94042 1.648141,-1.91932 2.822415,-2.69017 0.967104,-0.63484 2.593435,-1.15225 3.759156,-1.49631 2.751605,-0.81218 5.978497,-0.56827 6.513777,-0.5842 16.7113,-0.49693 319.16126,-0.27134 334.85393,-0.23569 l 22.75416,-10.35994 -22.75416,-9.49766 -338.875979,0.256 c 0,0 -8.631582,-0.12501 -12.719428,1.05331 -3.319182,0.95687 -6.439474,2.63239 -9.198199,4.77366 z"
       style="fill:#348dab;fill-opacity:1;stroke:none;stroke-width:0.5415054px;stroke-linecap:butt;stroke-linejoin:miter;stroke-opacity:1" />
    <path
       sodipodi:nodetypes="ccssscccc"
       inkscape:connector-curvature="0"
       id="path821"
       d="m 270.45254,203.18091 v 11.36669 c 0,0 -0.21719,1.59638 -0.52917,2.32873 -0.37729,0.88563 -0.88254,1.75695 -1.5875,2.41248 -0.79468,0.73896 -1.82399,1.2122 -2.84219,1.5875 -0.846,0.31183 -2.65266,0.52917 -2.65266,0.52917 h -57.88979 v -18.22457 z"
       style="opacity:1;fill:#404040;fill-opacity:1;fill-rule:nonzero;stroke:none;stroke-width:0.48651931;stroke-miterlimit:4;stroke-dasharray:none;stroke-dashoffset:24.5;stroke-opacity:1" />
    <path
       style="opacity:1;fill:#404040;fill-opacity:1;fill-rule:nonzero;stroke:none;stroke-width:0.50223327;stroke-miterlimit:4;stroke-dasharray:none;stroke-dashoffset:24.5;stroke-opacity:1"
       d="m 270.46196,275.48316 -18.35139,0.0235 -25.7849,-57.71878 18.88056,-0.59537 z"
       id="path823"
       inkscape:connector-curvature="0"
       sodipodi:nodetypes="ccccc" />
    <path
       id="path845"
       style="fill:#404040;fill-opacity:1;stroke:none;stroke-width:0.5415054px;stroke-linecap:butt;stroke-linejoin:miter;stroke-opacity:1"
       d="m 136.08595,163.19934 c 2.65255,0.0493 11.1666,0.26256 13.08644,0.69084 1.18628,0.26464 2.79207,0.86147 3.75918,1.49631 1.17428,0.77085 2.13907,1.74975 2.82243,2.69017 1.70404,2.3452 1.73952,3.92601 2.00566,4.91924 0.13492,7.96394 -0.15805,68.12992 -0.15805,102.86885 5.59867,0.002 12.95096,0.002 18.67132,-7.5e-4 l 0.002,-107.15485 c 0,0 -1.02524,-6.96877 -2.30485,-10.21709 -1.30123,-3.30309 -2.79966,-6.74956 -5.37188,-9.19642 l 2e-4,2e-5 c -2.83277,-2.34815 -5.87905,-3.81678 -9.19825,-4.77365 -4.08787,-1.17831 -23.29387,-1.0533 -23.29387,-1.0533 m -0.0203,19.73063 c -2.24508,0.0138 -9.92115,0.24673 -11.25476,0.42262 -0.50517,0.0666 -1.00086,0.15055 -1.52834,0.26822 -1.18628,0.26464 -2.79207,0.86147 -3.75918,1.49631 -1.17428,0.77085 -2.13907,1.74975 -2.82243,2.69017 -1.70404,2.3452 -1.73952,3.92601 -2.00566,4.91924 -0.13492,7.96394 0.15805,68.12992 0.15805,102.86885 -5.59867,0.002 -12.95096,0.002 -18.671296,-7.5e-4 l -0.002,-107.15485 c 0,0 1.025234,-6.96877 2.304835,-10.21709 1.301224,-3.30309 2.799651,-6.74956 5.371871,-9.19642 l -2e-4,2e-5 c 2.83277,-2.34815 5.87905,-3.81678 9.19825,-4.77365 4.08787,-1.17831 23.03119,-1.0533 23.03119,-1.0533"
       inkscape:connector-curvature="0"
       sodipodi:nodetypes="ccccccccccccccscccccccccccc" />
    <path
       sodipodi:nodetypes="ccccc"
       inkscape:connector-curvature="0"
       id="path847"
       d="m 173.58358,199.9373 v 19.82901 H 98.895745 V 199.9373 Z"
       style="opacity:1;fill:#404040;fill-opacity:1;fill-rule:nonzero;stroke:none;stroke-width:0.54190278;stroke-miterlimit:4;stroke-dasharray:none;stroke-dashoffset:24.5;stroke-opacity:1" />
  </g>
</svg>
