<?xml version="1.0" encoding="UTF-8" standalone="no"?>
<!-- Created with Inkscape (http://www.inkscape.org/) -->

<svg
   xmlns:dc="http://purl.org/dc/elements/1.1/"
   xmlns:cc="http://creativecommons.org/ns#"
   xmlns:rdf="http://www.w3.org/1999/02/22-rdf-syntax-ns#"
   xmlns:svg="http://www.w3.org/2000/svg"
   xmlns="http://www.w3.org/2000/svg"
   xmlns:sodipodi="http://sodipodi.sourceforge.net/DTD/sodipodi-0.dtd"
   xmlns:inkscape="http://www.inkscape.org/namespaces/inkscape"
   width="600mm"
   height="299mm"
   viewBox="0 0 600 299"
   version="1.1"
   id="svg8"
   inkscape:version="0.92.2 (5c3e80d, 2017-08-06)"
   sodipodi:docname="Artix banner #1.svg"
   inkscape:export-filename="E:\Projects\Artix Linux logo\Artix banner #1.png"
   inkscape:export-xdpi="84.949837"
   inkscape:export-ydpi="84.949837">
  <defs
     id="defs2" />
  <sodipodi:namedview
     id="base"
     pagecolor="#ffffff"
     bordercolor="#666666"
     borderopacity="1.0"
     inkscape:pageopacity="0.0"
     inkscape:pageshadow="2"
     inkscape:zoom="0.52013522"
     inkscape:cx="1612.8325"
     inkscape:cy="390.04617"
     inkscape:document-units="mm"
     inkscape:current-layer="layer1"
     showgrid="false"
     inkscape:pagecheckerboard="true"
     inkscape:showpageshadow="false"
     inkscape:window-width="1280"
     inkscape:window-height="984"
     inkscape:window-x="-4"
     inkscape:window-y="17"
     inkscape:window-maximized="1"
     inkscape:measure-start="1153.93,133.023"
     inkscape:measure-end="1213.77,133.023" />
  <metadata
     id="metadata5">
    <rdf:RDF>
      <cc:Work
         rdf:about="">
        <dc:format>image/svg+xml</dc:format>
        <dc:type
           rdf:resource="http://purl.org/dc/dcmitype/StillImage" />
        <dc:title />
      </cc:Work>
    </rdf:RDF>
  </metadata>
  <g
     inkscape:label="Layer 1"
     inkscape:groupmode="layer"
     id="layer1"
     transform="translate(0,2)">
    <path
       style="fill:#47abcc;fill-opacity:1;stroke:none;stroke-width:0.29279357px;stroke-linecap:butt;stroke-linejoin:miter;stroke-opacity:1"
       d="m 108.64614,48.254041 h 18.89003 L 41.135178,267.80443 h -20.67672 z"
       id="path828"
       inkscape:connector-curvature="0"
       sodipodi:nodetypes="ccccc" />
    <path
       style="fill:#c2a038;fill-opacity:1;stroke:none;stroke-width:0.29410103px;stroke-linecap:butt;stroke-linejoin:miter;stroke-opacity:1"
       d="M 125.91822,65.965553 144.15526,65.754315 73.94385,246.20006 53.904074,246.42611 Z"
       id="path828-8"
       inkscape:connector-curvature="0"
       sodipodi:nodetypes="ccccc" />
    <path
       style="fill:#ce4669;fill-opacity:1;stroke:none;stroke-width:0.29410103px;stroke-linecap:butt;stroke-linejoin:miter;stroke-opacity:1"
       d="M 156.06098,48.298645 174.29379,47.787224 90.318447,268.72783 70.283191,269.27509 Z"
       id="path828-8-0"
       inkscape:connector-curvature="0"
       sodipodi:nodetypes="ccccc" />
    <path
       style="fill:#404040;fill-opacity:1;stroke:none;stroke-width:0.29410103px;stroke-linecap:butt;stroke-linejoin:miter;stroke-opacity:1"
       d="m 185.6777,30.971214 30.46366,0.283855 74.50001,230.617171 -19.08096,0.0522 c 0,0 -46.93505,-134.63224 -56.50872,-151.68951 -8.02614,-14.300054 -26.32904,-11.334224 -34.47231,1.48862 -15.67019,23.38815 -47.72853,123.4712 -58.01295,150.15066 l -21.69047,-0.0282 z"
       id="path828-8-0-1"
       inkscape:connector-curvature="0"
       sodipodi:nodetypes="ccccscccc" />
    <path
       style="fill:#404040;fill-opacity:1;stroke:none;stroke-width:0.38117847px;stroke-linecap:butt;stroke-linejoin:miter;stroke-opacity:1"
       d="m 310.62626,157.81007 c -1.81064,1.7224 -2.86543,4.14845 -3.78139,6.47357 -0.90075,2.28657 -1.62244,7.19205 -1.62244,7.19205 l 0.0879,90.32855 h 15.8339 c 0.39522,-18.20194 0.54672,-69.12373 0.83662,-85.44855 0.24644,-0.0115 0.21232,-1.81192 1.41184,-3.46276 0.48103,-0.66199 1.16017,-1.35106 1.98677,-1.89368 0.68077,-0.44688 1.82559,-0.8111 2.64617,-1.05329 1.93694,-0.57171 4.20843,-0.40002 4.58523,-0.41123 11.76348,-0.3498 19.04905,-0.191 30.09549,-0.16591 v -15.84069 l -36.65165,0.18021 c 0,0 -6.07601,-0.088 -8.95356,0.74144 -2.33646,0.67356 -4.71302,1.68435 -6.47486,3.36029 z"
       id="path820"
       inkscape:connector-curvature="0"
       sodipodi:nodetypes="csccccsssscccssc" />
    <path
       style="fill:#404040;fill-opacity:1;stroke:none;stroke-width:0.38117847px;stroke-linecap:butt;stroke-linejoin:miter;stroke-opacity:1"
       d="m 407.36066,172.99858 -0.27987,89.20682 15.72892,-0.10933 c 0.0934,-37.89785 0.13728,-73.73004 0.30354,-89.07198 0.003,-0.2841 0.21086,-2.50332 1.75601,-3.36887 1.01432,-0.5682 3.97318,-0.41774 4.37425,-0.4298 l 19.43463,9.4e-4 0.11345,-15.80015 -66.85229,0.18949 0.0435,15.89531 19.63891,-0.0378 c 0,0 3.22772,-0.0858 4.40279,0.6819 1.17507,0.76775 1.33606,2.84345 1.33606,2.84345 z"
       id="path822"
       inkscape:connector-curvature="0"
       sodipodi:nodetypes="cccsscccccczcc" />
    <path
       style="fill:#404040;fill-opacity:1;stroke:none;stroke-width:0.38117847px;stroke-linecap:butt;stroke-linejoin:miter;stroke-opacity:1"
       d="m 503.45472,153.60055 27.31702,51.49489 -27.37266,55.88065 12.87645,-0.066 27.15545,-56.21802 -27.06494,-51.02558 z"
       id="path839"
       inkscape:connector-curvature="0"
       sodipodi:nodetypes="ccccccc" />
    <rect
       style="opacity:1;fill:#404040;fill-opacity:1;fill-rule:nonzero;stroke:none;stroke-width:0.52777606;stroke-miterlimit:4;stroke-dasharray:none;stroke-dashoffset:24.5;stroke-opacity:1"
       id="rect858"
       width="14.941479"
       height="108.91815"
       x="468.59323"
       y="153.42776"
       ry="0" />
    <path
       style="fill:#404040;fill-opacity:1;stroke:none;stroke-width:0.38117847px;stroke-linecap:butt;stroke-linejoin:miter;stroke-opacity:1"
       d="m 572.17597,153.52705 -27.31702,51.49488 27.37266,55.88067 -13.6388,-0.066 -27.15545,-56.21803 27.06494,-51.02559 z"
       id="path839-2"
       inkscape:connector-curvature="0"
       sodipodi:nodetypes="ccccccc" />
  </g>
</svg>
