<?xml version="1.0" encoding="UTF-8" standalone="no"?>
<!-- Created with Inkscape (http://www.inkscape.org/) -->

<svg
   xmlns:dc="http://purl.org/dc/elements/1.1/"
   xmlns:cc="http://creativecommons.org/ns#"
   xmlns:rdf="http://www.w3.org/1999/02/22-rdf-syntax-ns#"
   xmlns:svg="http://www.w3.org/2000/svg"
   xmlns="http://www.w3.org/2000/svg"
   xmlns:sodipodi="http://sodipodi.sourceforge.net/DTD/sodipodi-0.dtd"
   xmlns:inkscape="http://www.inkscape.org/namespaces/inkscape"
   width="600mm"
   height="299mm"
   viewBox="0 0 600 299"
   version="1.1"
   id="svg8"
   inkscape:version="0.92.2 (5c3e80d, 2017-08-06)"
   sodipodi:docname="Artix banner #1.svg"
   inkscape:export-filename="E:\Projects\Artix Linux logo\Artix banner #1.png"
   inkscape:export-xdpi="84.949837"
   inkscape:export-ydpi="84.949837">
  <defs
     id="defs2" />
  <sodipodi:namedview
     id="base"
     pagecolor="#ffffff"
     bordercolor="#666666"
     borderopacity="1.0"
     inkscape:pageopacity="0.0"
     inkscape:pageshadow="2"
     inkscape:zoom="0.26006761"
     inkscape:cx="1186.8284"
     inkscape:cy="484.53386"
     inkscape:document-units="mm"
     inkscape:current-layer="layer1"
     showgrid="false"
     inkscape:pagecheckerboard="true"
     inkscape:showpageshadow="false"
     inkscape:window-width="1280"
     inkscape:window-height="984"
     inkscape:window-x="-4"
     inkscape:window-y="17"
     inkscape:window-maximized="1"
     inkscape:measure-start="1670.72,429.696"
     inkscape:measure-end="1627.94,494.102" />
  <metadata
     id="metadata5">
    <rdf:RDF>
      <cc:Work
         rdf:about="">
        <dc:format>image/svg+xml</dc:format>
        <dc:type
           rdf:resource="http://purl.org/dc/dcmitype/StillImage" />
        <dc:title></dc:title>
      </cc:Work>
    </rdf:RDF>
  </metadata>
  <g
     inkscape:label="Layer 1"
     inkscape:groupmode="layer"
     id="layer1"
     transform="translate(0,2)">
    <path
       style="fill:#47abcc;fill-opacity:1;stroke:none;stroke-width:0.29279357px;stroke-linecap:butt;stroke-linejoin:miter;stroke-opacity:1"
       d="m 125.05041,48.254041 h 18.89003 L 57.539355,267.80443 h -20.67672 z"
       id="path828"
       inkscape:connector-curvature="0"
       sodipodi:nodetypes="ccccc" />
    <path
       style="fill:#c2a038;fill-opacity:1;stroke:none;stroke-width:0.29410103px;stroke-linecap:butt;stroke-linejoin:miter;stroke-opacity:1"
       d="M 142.32249,65.965553 160.55953,65.754315 90.348027,246.20006 70.308251,246.42611 Z"
       id="path828-8"
       inkscape:connector-curvature="0"
       sodipodi:nodetypes="ccccc" />
    <path
       style="fill:#ce4669;fill-opacity:1;stroke:none;stroke-width:0.29410103px;stroke-linecap:butt;stroke-linejoin:miter;stroke-opacity:1"
       d="m 172.46525,48.298645 18.23281,-0.511421 -83.9754,220.940606 -20.035292,0.54726 z"
       id="path828-8-0"
       inkscape:connector-curvature="0"
       sodipodi:nodetypes="ccccc" />
    <path
       style="fill:#404040;fill-opacity:1;stroke:none;stroke-width:0.29410103px;stroke-linecap:butt;stroke-linejoin:miter;stroke-opacity:1"
       d="m 202.08197,30.971214 30.46366,0.283855 74.50001,230.617171 -19.08096,0.0522 c 0,0 -46.93505,-134.63224 -56.50872,-151.68951 -8.02614,-14.300054 -26.32904,-11.334224 -34.47231,1.48862 -15.67019,23.38815 -47.72853,123.4712 -58.01295,150.15066 l -21.69047,-0.0282 z"
       id="path828-8-0-1"
       inkscape:connector-curvature="0"
       sodipodi:nodetypes="ccccscccc" />
    <path
       style="fill:#404040;fill-opacity:1;stroke:none;stroke-width:0.33262017px;stroke-linecap:butt;stroke-linejoin:miter;stroke-opacity:1"
       d="m 322.04519,156.34093 c -1.57999,1.50298 -2.50041,3.61998 -3.29968,5.6489 -0.78601,1.99529 -1.41576,6.27586 -1.41576,6.27586 l 0.0767,78.8216 h 14.74033 c 0.34488,-15.88319 0.47708,-59.40511 0.73005,-73.65031 0.21504,-0.01 0.18527,-1.5811 1.23198,-3.02164 0.41975,-0.57766 1.01238,-1.17895 1.73368,-1.65245 0.59404,-0.38995 1.59303,-0.70777 2.30907,-0.91911 1.6902,-0.49888 3.67232,-0.34906 4.00112,-0.35884 10.26493,-0.30524 20.99055,-0.16667 30.62979,-0.14478 v -14.73569 l -37.27427,0.15725 c 0,0 -5.30199,-0.0768 -7.81297,0.64699 -2.03882,0.58775 -4.11263,1.46978 -5.65003,2.93222 z"
       id="path820"
       inkscape:connector-curvature="0"
       sodipodi:nodetypes="csccccsssscccssc" />
    <path
       style="fill:#404040;fill-opacity:1;stroke:none;stroke-width:0.33262017px;stroke-linecap:butt;stroke-linejoin:miter;stroke-opacity:1"
       d="m 414.39415,169.59458 -0.24422,77.84277 13.72522,-0.0954 c 0.0815,-33.07005 0.11979,-64.33758 0.26487,-77.72511 0.003,-0.24791 0.184,-2.18442 1.53231,-2.93971 0.88511,-0.49582 3.46704,-0.36453 3.81702,-0.37505 l 19.93163,8.2e-4 0.099,-13.78737 -64.48376,0.16535 0.038,13.87041 20.31211,-0.033 c 0,0 2.81654,-0.0749 3.84192,0.59503 1.02538,0.66995 1.16586,2.48122 1.16586,2.48122 z"
       id="path822"
       inkscape:connector-curvature="0"
       sodipodi:nodetypes="cccsscccccczcc" />
    <path
       style="fill:#404040;fill-opacity:1;stroke:none;stroke-width:0.33262017px;stroke-linecap:butt;stroke-linejoin:miter;stroke-opacity:1"
       d="m 501.88358,152.66766 23.83711,44.93496 -23.88566,48.76202 11.23612,-0.0576 23.69612,-49.05641 -23.61714,-44.52544 z"
       id="path839"
       inkscape:connector-curvature="0"
       sodipodi:nodetypes="ccccccc" />
    <rect
       style="opacity:1;fill:#404040;fill-opacity:1;fill-rule:nonzero;stroke:none;stroke-width:0.46208069;stroke-miterlimit:4;stroke-dasharray:none;stroke-dashoffset:24.5;stroke-opacity:1"
       id="rect858"
       width="13.038085"
       height="95.678932"
       x="471.46329"
       y="151.88104"
       ry="0" />
    <path
       style="fill:#404040;fill-opacity:1;stroke:none;stroke-width:0.33262017px;stroke-linecap:butt;stroke-linejoin:miter;stroke-opacity:1"
       d="m 561.85044,152.60352 -23.83711,44.93496 23.88566,48.76203 -11.90136,-0.0576 -23.69612,-49.05642 23.61714,-44.52544 z"
       id="path839-2"
       inkscape:connector-curvature="0"
       sodipodi:nodetypes="ccccccc" />
  </g>
</svg>
