<?xml version="1.0" encoding="UTF-8" standalone="no"?>
<!-- Created with Inkscape (http://www.inkscape.org/) -->

<svg
   xmlns:dc="http://purl.org/dc/elements/1.1/"
   xmlns:cc="http://creativecommons.org/ns#"
   xmlns:rdf="http://www.w3.org/1999/02/22-rdf-syntax-ns#"
   xmlns:svg="http://www.w3.org/2000/svg"
   xmlns="http://www.w3.org/2000/svg"
   xmlns:sodipodi="http://sodipodi.sourceforge.net/DTD/sodipodi-0.dtd"
   xmlns:inkscape="http://www.inkscape.org/namespaces/inkscape"
   width="297mm"
   height="210mm"
   viewBox="0 0 297 210"
   version="1.1"
   id="svg1248"
   inkscape:version="0.92.2 5c3e80d, 2017-08-06"
   sodipodi:docname="Artix banner #1.svg">
  <defs
     id="defs1242" />
  <sodipodi:namedview
     id="base"
     pagecolor="#ffffff"
     bordercolor="#666666"
     borderopacity="1.0"
     inkscape:pageopacity="0.0"
     inkscape:pageshadow="2"
     inkscape:zoom="0.29984704"
     inkscape:cx="-706.24028"
     inkscape:cy="624.45833"
     inkscape:document-units="mm"
     inkscape:current-layer="layer1"
     showgrid="false"
     inkscape:window-width="1678"
     inkscape:window-height="984"
     inkscape:window-x="0"
     inkscape:window-y="0"
     inkscape:window-maximized="1" />
  <metadata
     id="metadata1245">
    <rdf:RDF>
      <cc:Work
         rdf:about="">
        <dc:format>image/svg+xml</dc:format>
        <dc:type
           rdf:resource="http://purl.org/dc/dcmitype/StillImage" />
        <dc:title></dc:title>
      </cc:Work>
    </rdf:RDF>
  </metadata>
  <g
     inkscape:label="Layer 1"
     inkscape:groupmode="layer"
     id="layer1"
     transform="translate(0,-87)">
    <g
       transform="matrix(0.20011281,0,0,0.19064145,46.881167,-77.793281)"
       id="g1240">
      <text
         transform="scale(0.8362813,1.1957699)"
         id="text1774"
         y="1336.0647"
         x="-62.559849"
         style="font-style:normal;font-variant:normal;font-weight:normal;font-stretch:normal;font-size:422.61990356px;line-height:125%;font-family:Ubuntu;-inkscape-font-specification:Ubuntu;letter-spacing:0px;word-spacing:0px;fill:#1c67cc;fill-opacity:1;stroke:none;stroke-width:2.20114541px;stroke-linecap:butt;stroke-linejoin:miter;stroke-opacity:1"
         xml:space="preserve"><tspan
           style="font-style:normal;font-variant:normal;font-weight:normal;font-stretch:normal;font-family:Aka-AcidGRHollow;-inkscape-font-specification:Aka-AcidGRHollow;fill:#1c67cc;fill-opacity:1;stroke-width:2.20114541px"
           y="1336.0647"
           x="-62.559849"
           id="tspan1772"
           sodipodi:role="line">ARTIX</tspan></text>
      <path
         transform="matrix(0.94066762,0,0,0.94066762,-3.7627002,-4.4234834)"
         inkscape:connector-curvature="0"
         id="path1447"
         d="m -34.850447,1690.9297 c 0.619053,-4.7666 1.803024,-9.109 2.631046,-9.6499 0.828023,-0.5408 8.481216,-28.7688 17.007096,-62.7288 8.5258804,-33.9599 21.1359209,-79.111 28.022313,-100.3357 13.484018,-41.5594 20.92244,-68.5825 28.909528,-105.0255 2.785785,-12.7109 8.499941,-37.1172 12.698126,-54.2363 l 7.633061,-31.1256 5.808841,0.9426 c 3.194863,0.5185 12.549463,-0.4585 20.788,-2.1711 31.066146,-6.4579 31.294736,-6.3976 34.106536,9.0048 0.99449,5.4475 5.16291,20.6757 9.26316,33.8405 14.01592,45.0013 15.49039,50.4094 26.32902,96.5693 19.35944,82.4487 29.48023,114.8532 54.6511,174.9803 9.1219,21.79 17.0283,41.1256 17.56979,42.9681 0.92874,3.1602 -0.44115,3.5538 -24.18517,6.9491 -30.78925,4.4028 -48.71349,5.7025 -49.99722,3.6253 -0.53017,-0.8578 -1.60858,-7.8078 -2.39647,-15.4443 -1.53164,-14.8454 -17.9713,-80.976 -27.31597,-109.882 -3.11173,-9.6255 -7.18468,-19.14 -9.051,-21.1432 -4.11308,-4.4149 -10.73553,-4.6873 -23.186859,-0.9539 -12.422182,3.7247 -46.012651,8.7061 -47.078429,6.9817 -1.528681,-2.4735 -7.109408,-1.5269 -8.681106,1.4725 -1.703811,3.2515 0.347435,10.3172 2.995177,10.3172 2.519672,0 2.046207,7.2126 -1.610873,24.5393 -4.248485,20.1287 -8.240477,58.5345 -8.240477,79.2792 v 16.4222 l -11.142613,2.5087 c -16.1243714,3.6303 -52.841227,10.962 -54.89738,10.962 -1.159296,0 -1.372823,-2.941 -0.629227,-8.6665 z M 103.5386,1516.9016 c 12.87704,-2.4623 23.5889,-3.6707 26.94994,-3.0402 6.30261,1.1824 10.28023,-1.1487 10.28023,-6.0247 0,-1.7429 -4.7316,-11.866 -10.51467,-22.4958 -25.97663,-47.7474 -43.960331,-83.4395 -43.960331,-87.2478 0,-2.4207 -2.104414,-6.2454 -5.065648,-9.2067 -4.432096,-4.4321 -5.365906,-4.7654 -7.466392,-2.6649 -2.100487,2.1005 -2.056988,3.3283 0.347796,9.8167 2.701143,7.2881 2.645402,7.8984 -3.23233,35.3944 -12.568886,58.797 -15.348307,83.6424 -9.959761,89.031 3.209665,3.2096 10.312587,2.616 42.621166,-3.562 z"
         style="opacity:1;fill:#29d3cc;fill-opacity:1;fill-rule:evenodd;stroke:#bc00e2;stroke-width:1.65075743;stroke-opacity:0.8133971" />
      <path
         transform="matrix(0.94066762,0,0,0.94066762,-3.7627002,-4.4234834)"
         inkscape:connector-curvature="0"
         id="path1449"
         d="m 409.46473,1652.9623 c -0.41346,-23.8328 -0.78054,-53.8783 -0.81572,-66.7677 -0.0614,-22.51 -0.25815,-23.846 -4.98251,-33.8405 -5.51105,-11.6587 -16.50662,-24.9276 -23.76898,-28.6831 -3.96669,-2.0512 -5.3342,-2.1136 -7.83581,-0.3573 -3.8668,2.7147 -23.04128,27.8787 -28.6649,37.6189 -16.3686,28.3506 -15.86664,64.8389 1.28031,93.0681 4.5873,7.5522 5.23671,9.492 2.92757,8.7449 -20.4784,-6.6259 -27.85566,-8.0685 -45.06169,-8.8121 -14.34909,-0.6201 -20.97996,-0.1987 -27.16047,1.7262 -4.49722,1.4005 -8.33623,2.387 -8.53114,2.1921 -0.19491,-0.1949 0.66421,-4.2811 1.90916,-9.0805 4.71765,-18.187 6.05057,-33.9965 6.89145,-81.738 1.05944,-60.1502 -3.93075,-159.3831 -10.34503,-205.7171 -1.31019,-9.4641 -2.38215,-17.712 -2.38215,-18.3285 0,-0.6165 10.58548,-1.5608 23.52329,-2.0984 12.93781,-0.5375 35.40875,-2.9369 49.93542,-5.3318 31.85692,-5.2522 69.51881,-7.1248 83.08665,-4.1312 30.72611,6.7793 53.21537,30.1415 55.81511,57.9816 3.76954,40.367 -25.01949,88.9535 -58.68415,99.0397 -5.64067,1.6899 -8.08894,1.6847 -12.82423,-0.028 -5.03555,-1.8209 -6.21875,-1.7502 -8.47522,0.5062 -3.86992,3.87 -0.84235,11.5884 4.80493,12.2496 2.8691,0.3359 8.36315,5.0064 17.0338,14.4803 7.03931,7.6915 17.37672,17.0395 22.97205,20.7734 13.11959,8.755 23.7151,18.8691 27.39886,26.1538 4.5378,8.9737 6.40893,18.7592 8.36782,43.7615 3.80148,48.5207 11.67216,69.0906 30.05394,78.5457 3.36852,1.7327 7.82556,3.2142 9.90454,3.2923 3.30162,0.1239 3.15325,0.3647 -1.1723,1.9027 -2.78118,0.9888 -20.87359,1.9385 -41.26893,2.1662 -19.97417,0.2231 -39.65945,1.2058 -43.74508,2.1839 -4.08562,0.9781 -10.12985,1.7965 -13.43162,1.8187 l -6.00322,0.04 z m -74.53609,-155.4991 c 0.5047,-1.3152 4.75272,-3.6477 9.44005,-5.1832 21.0101,-6.8827 49.42375,-23.9835 63.89645,-38.4562 10.71115,-10.7112 16.04946,-20.0354 17.49071,-30.5505 2.19062,-15.9822 -13.16877,-36.5425 -35.73094,-47.8299 -18.57896,-9.2947 -35.62424,-9.4229 -57.87509,-0.4354 -5.38875,2.1766 -9.79773,3.301 -9.79773,2.4986 0,-2.0355 -4.52805,-1.83 -5.82231,0.2641 -0.58569,0.9477 0.10477,10.0475 1.53436,20.2218 1.42958,10.1743 3.73485,32.2413 5.12282,49.0378 1.38797,16.7964 2.91919,32.4816 3.40272,34.8558 0.76671,3.7648 0.23533,4.4456 -4.15536,5.3237 -4.31362,0.8627 -5.03451,1.74 -5.03451,6.1269 0,4.8306 0.32161,5.0923 5.68911,4.6299 3.12901,-0.2696 6.22419,0.045 6.87816,0.6989 1.89115,1.8911 3.96759,1.388 4.96156,-1.2023 z"
         style="opacity:1;fill:#29d37d;fill-opacity:1;fill-rule:evenodd;stroke:#bc00e2;stroke-width:1.65075743;stroke-opacity:0.8133971" />
      <path
         transform="matrix(0.94066762,0,0,0.94066762,-3.7627002,-4.4234834)"
         inkscape:connector-curvature="0"
         id="path1451"
         d="m 606.83074,1694.4343 c 1.32722,-3.0624 6.23416,-13.5826 10.9043,-23.3781 22.63074,-47.4675 31.12565,-94.4141 34.86182,-192.6615 0.984,-25.8756 2.47982,-48.3365 3.32404,-49.913 4.79945,-8.9627 -3.57106,-30.7789 -14.98046,-39.0438 -18.26492,-13.2311 -45.13406,-9.5719 -65.73752,8.9524 l -8.03275,7.2221 -1.17036,-23.4488 c -0.6437,-12.8969 -1.74745,-26.9339 -2.45277,-31.1934 l -1.28241,-7.7445 5.08861,1.0708 c 6.4892,1.3656 21.28624,1.2653 55.43671,-0.3758 20.4172,-0.9811 37.77795,-0.5864 69.33181,1.5763 37.86815,2.5955 58.98482,2.575 68.50644,-0.067 3.19022,-0.885 3.30196,-0.1176 3.31493,22.7651 l 0.0132,23.681 -6.62656,-3.7037 c -14.95581,-8.3589 -42.41716,-11.4934 -54.92151,-6.2687 -12.21137,5.1022 -18.77215,14.4823 -18.81834,26.905 -0.24083,64.7662 0.95011,95.1608 5.31382,135.6158 5.02797,46.6133 14.0152,97.9834 21.87667,125.0449 l 3.9563,13.6187 h -4.98727 c -2.743,0 -6.33175,1.2167 -7.975,2.7039 -2.33456,2.1127 -7.23484,2.8111 -22.41521,3.1947 -12.38988,0.313 -27.79929,2.103 -42.53809,4.9413 -12.71083,2.4478 -25.20156,4.8158 -27.75718,5.2622 l -4.64658,0.8116 2.41312,-5.568 z"
         style="opacity:1;fill:#29d34e;fill-opacity:1;fill-rule:evenodd;stroke:#000fe2;stroke-width:3.89999986;stroke-linecap:square;stroke-miterlimit:4;stroke-dasharray:none;stroke-dashoffset:0;stroke-opacity:0.8133971;paint-order:fill markers stroke" />
      <path
         transform="matrix(0.94066762,0,0,0.94066762,-3.7627002,-4.4234834)"
         inkscape:connector-curvature="0"
         id="path1453"
         d="m 848.47177,1702.3182 c -1.62145,-3.9436 -5.20047,-9.3264 -7.95338,-11.9618 -4.38836,-4.2011 -6.20561,-4.7846 -14.74372,-4.7347 -8.25337,0.048 -10.88721,0.8667 -17.27173,5.3669 -5.14909,3.6295 -7.76901,4.6563 -8.27807,3.2446 -0.40962,-1.136 -2.26283,-8.3796 -4.11823,-16.0969 -9.89023,-41.1371 -8.51348,-104.6678 6.28838,-290.18 l 2.80363,-35.1379 12.38068,-0.6461 c 10.31738,-0.5383 27.58127,-4.3119 45.71365,-9.9921 l 3.61934,-1.1338 -3.19674,8.4131 c -6.21386,16.3535 -8.37619,35.2321 -8.34735,72.8776 0.023,30.0869 2.80354,80.7697 5.97334,108.8818 2.7025,23.9678 4.05706,74.3998 2.516,93.6742 -2.02421,25.3174 -10.0433,84.6101 -11.44197,84.6014 -0.54766,0 -2.32238,-3.2327 -3.94383,-7.1763 z"
         style="opacity:1;fill:#d3c429;fill-opacity:1;fill-rule:evenodd;stroke:#bc00e2;stroke-width:1.65075743;stroke-opacity:0.8133971" />
      <path
         transform="matrix(0.94066762,0,0,0.94066762,-3.7627002,-4.4234834)"
         inkscape:connector-curvature="0"
         id="path1455"
         d="m 896.81569,1687.2774 c 0,-8.5023 24.17956,-59.709 42.83106,-90.7063 27.19281,-45.1922 37.76655,-73.9877 35.81752,-97.5419 -3.36503,-40.6666 -42.44447,-128.1332 -69.20576,-154.8945 l -7.07574,-7.0757 13.52306,0.7098 c 16.17965,0.8492 35.17034,-2.9811 76.76035,-15.4819 2.37789,-0.7147 2.59025,0.8469 1.86079,13.6837 -2.78654,49.0363 12.51923,143.7528 23.93793,148.1345 6.1936,2.3767 8.6305,-7.1104 8.6754,-33.7733 0.079,-46.7729 5.6205,-93.0064 13.2076,-110.1881 1.7039,-3.8586 3.4454,-7.0157 3.87,-7.0157 0.4245,0 6.9027,2.6241 14.396,5.8314 7.4933,3.2072 17.7732,6.2517 22.8442,6.7655 11.2503,1.1399 27.1333,-2.3279 42.4305,-9.2639 6.0452,-2.7411 11.3309,-4.9837 11.7459,-4.9837 0.4151,0 -1.6676,4.2713 -4.6282,9.4918 -41.3665,72.9437 -70.7049,134.136 -78.3102,163.3348 -5.4194,20.8065 -1.5385,38.1647 18.1557,81.2062 5.0179,10.9665 10.5773,23.6276 12.3543,28.1358 5.5677,14.1255 19.4112,40.6018 24.213,46.3084 2.5303,3.0071 7.5243,7.5854 11.0977,10.174 7.6153,5.5164 8.1359,5.4555 -17.6534,2.0664 -27.2377,-3.5795 -46.7384,-1.6518 -66.0848,6.5328 l -6.3768,2.6977 1.1605,-7.8348 c 0.6383,-4.3091 3.2356,-17.1203 5.7718,-28.4692 6.7096,-30.0248 7.0505,-34.0686 4.9767,-59.0463 -3.1208,-37.5879 -7.8333,-56.1182 -15.3911,-60.5199 -2.5556,-1.4884 -4.1433,-0.5104 -10.146,6.2495 -8.6947,9.7914 -30.22436,45.54 -36.95125,61.355 -6.47397,15.2204 -10.08242,35.8799 -11.2759,64.5582 l -0.97075,23.3265 -7.38394,-3.2662 c -5.87963,-2.6009 -10.13011,-3.1493 -20.86363,-2.692 -12.54442,0.5344 -14.25586,1.061 -24.66608,7.5899 -12.60089,7.9029 -12.64646,7.9194 -12.64646,4.6015 z"
         style="opacity:1;fill:#ff00e5;fill-opacity:1;fill-rule:evenodd;stroke:#e200b4;stroke-width:1.65100002;stroke-miterlimit:4;stroke-dasharray:none;stroke-opacity:0.8133971" />
      <path
         transform="matrix(0.94066762,0,0,0.94066762,-3.7627002,-4.4234834)"
         inkscape:connector-curvature="0"
         id="path1457"
         d="m 410.50764,1627.5613 -1.49079,-67.4541 -4.84369,-9.8653 c -2.66403,-5.4259 -9.01462,-14.1543 -14.11243,-19.3964 -14.48429,-14.8943 -17.35966,-13.7194 -38.63225,15.7852 -15.83797,21.967 -20.77105,35.9432 -20.80301,58.9382 -0.023,16.5221 3.0434,29.9795 9.91793,43.5269 2.7218,5.3637 4.69347,10.0075 4.3815,10.3195 -0.31197,0.312 -6.07561,-0.8388 -12.80809,-2.5573 -16.11046,-4.1123 -41.16322,-5.8177 -52.53891,-3.5765 -4.91352,0.9681 -9.2316,1.4622 -9.59574,1.098 -0.36414,-0.3641 0.50365,-6.1247 1.92842,-12.8013 8.05781,-37.7595 6.39353,-171.0829 -3.29402,-263.8797 -1.37434,-13.1648 -2.90746,-26.2383 -3.40693,-29.0521 l -0.90812,-5.1162 20.35881,-1.1351 c 11.19735,-0.6244 28.53006,-2.2579 38.51715,-3.6301 55.91427,-7.6823 82.79747,-8.9743 98.98773,-4.7573 21.03135,5.478 37.39978,18.6323 46.14387,37.083 4.58563,9.676 5.08373,12.2812 5.05084,26.4169 -0.0408,17.5091 -3.68067,31.2453 -12.89723,48.6708 -7.67219,14.5055 -24.01629,31.1022 -36.85157,37.421 -9.76681,4.8082 -11.20982,5.0862 -18.15356,3.4972 -6.59429,-1.509 -7.93528,-1.3342 -10.6585,1.389 -1.71333,1.7133 -3.11515,4.2294 -3.11515,5.5913 0,2.951 5.78332,9.0791 8.56829,9.0791 1.0809,0 9.06644,6.8713 17.74565,15.2696 8.67921,8.3982 21.54584,19.6988 28.59252,25.1124 7.04667,5.4136 14.63048,12.4705 16.85291,15.6821 5.34969,7.7309 8.57327,21.3478 10.76127,45.4575 4.68658,51.6416 13.18954,73.2731 32.207,81.9343 l 6.60303,3.0072 -9.07916,0.1311 c -17.04917,0.2461 -75.09118,3.182 -83.52323,4.2247 l -8.41376,1.0405 z m -75.07948,-128.4137 c 1.43337,-1.2968 8.74542,-4.9468 16.24901,-8.1111 27.57361,-11.628 53.36601,-29.3855 65.17819,-44.8735 7.4081,-9.7135 11.89742,-23.2686 10.24614,-30.9373 -3.82717,-17.7735 -21.16999,-35.261 -43.82518,-44.1909 -12.81438,-5.0509 -30.31664,-4.7818 -46.23793,0.7109 -6.71559,2.3169 -13.81796,3.7912 -15.78303,3.2763 -4.11626,-1.0786 -7.43911,3.4866 -6.25965,8.5999 0.40034,1.7357 2.58571,22.4696 4.85638,46.0754 2.27066,23.6059 4.51117,45.6897 4.97891,49.0751 0.76247,5.5187 0.42063,6.2633 -3.30474,7.1983 -4.2774,1.0736 -6.93618,6.8318 -5.21977,11.3047 0.53876,1.404 3.82837,2.6415 8.01913,3.0168 3.9081,0.35 7.41856,0.7661 7.80103,0.9247 0.38247,0.1586 1.86815,-0.7726 3.30151,-2.0693 z"
         style="opacity:1;fill:#d3293e;fill-opacity:1;fill-rule:evenodd;stroke:#bc00e2;stroke-width:1.65075743;stroke-opacity:0.8133971" />
      <path
         transform="matrix(0.94066762,0,0,0.94066762,-3.7627002,-4.4234834)"
         inkscape:connector-curvature="0"
         id="path2935"
         d="m -33.357344,1691.0351 c 0.648988,-3.9166 1.810605,-8.3238 2.58137,-9.7937 0.770766,-1.4699 7.407044,-25.6122 14.747286,-53.6496 16.19225812,-61.8492 21.7917182,-81.7546 33.84342,-120.3089 10.388981,-33.2351 19.208678,-66.918 32.850357,-125.4575 13.431032,-57.6356 11.186688,-51.9989 20.704241,-51.9989 4.417039,0 13.853343,-1.1141 20.969566,-2.4758 24.351454,-4.6598 26.900314,-3.809 29.361644,9.8005 0.64649,3.5747 5.97873,22.5171 11.84943,42.0943 5.87069,19.5773 17.65063,63.823 26.17763,98.3238 20.32081,82.2194 27.73576,105.2424 56.03229,173.9771 6.87446,16.6987 12.49902,31.2872 12.49902,32.4188 0,2.3254 -3.02475,2.9749 -29.71363,6.38 -29.70335,3.7897 -39.27714,4.5354 -40.14669,3.127 -0.44293,-0.7174 -2.01777,-8.3614 -3.49964,-16.9866 -5.69252,-33.1332 -24.045,-102.7942 -31.78096,-120.6318 -5.84516,-13.4778 -9.18355,-14.5982 -29.903475,-10.0355 -24.783561,5.4575 -38.02932,7.334 -44.433176,6.2948 -3.229278,-0.5241 -7.252664,-0.2136 -8.940854,0.6899 -3.85073,2.0608 -4.019391,9.296 -0.312195,13.3925 2.57951,2.8503 2.528167,4.4016 -0.796515,24.0659 -5.425084,32.0875 -6.928982,45.3413 -8.04775,70.9246 -0.851847,19.4795 -1.477224,23.6311 -3.660513,24.3002 -3.170441,0.9717 -46.242732,9.9892 -55.207596,11.5581 l -6.353239,1.1118 z M 101.97597,1518.777 c 13.61874,-2.1992 27.14985,-3.9014 30.06914,-3.7825 5.85598,0.2383 10.37441,-2.6058 10.37441,-6.5301 0,-1.3977 -5.668,-13.3779 -12.59557,-26.6227 -6.92756,-13.2448 -18.10284,-34.6095 -24.83394,-47.477 -6.731102,-12.8675 -14.053385,-28.0268 -16.271739,-33.6874 -4.597719,-11.7319 -8.181241,-16.3758 -12.636702,-16.3758 -4.394413,0 -5.499244,4.3171 -3.253586,12.7134 1.741796,6.5124 1.173587,11.0742 -5.571241,44.7286 -9.087596,45.3439 -12.060517,69.4428 -9.311111,75.4771 3.570988,7.8375 4.854147,7.8828 44.030339,1.5564 z"
         style="opacity:1;fill:#2949d3;fill-opacity:1;fill-rule:evenodd;stroke:#2b2efe;stroke-width:9.57400036;stroke-linecap:square;stroke-miterlimit:4;stroke-dasharray:none;stroke-dashoffset:0;stroke-opacity:0.8133971;paint-order:normal" />
    </g>
  </g>
</svg>
