<?xml version="1.0" encoding="UTF-8" standalone="no"?>
<!-- Created with Inkscape (http://www.inkscape.org/) -->

<svg
   xmlns:dc="http://purl.org/dc/elements/1.1/"
   xmlns:cc="http://creativecommons.org/ns#"
   xmlns:rdf="http://www.w3.org/1999/02/22-rdf-syntax-ns#"
   xmlns:svg="http://www.w3.org/2000/svg"
   xmlns="http://www.w3.org/2000/svg"
   xmlns:sodipodi="http://sodipodi.sourceforge.net/DTD/sodipodi-0.dtd"
   xmlns:inkscape="http://www.inkscape.org/namespaces/inkscape"
   width="550mm"
   height="250mm"
   viewBox="0 0 550 250"
   version="1.1"
   id="svg8"
   inkscape:version="0.92.2 (5c3e80d, 2017-08-06)"
   sodipodi:docname="Artix banner #1 alternative.svg"
   inkscape:export-filename="E:\Projects\Artix Linux logo\Artix banner #1.png"
   inkscape:export-xdpi="84.949837"
   inkscape:export-ydpi="84.949837">
  <defs
     id="defs2" />
  <sodipodi:namedview
     id="base"
     pagecolor="#ffffff"
     bordercolor="#666666"
     borderopacity="1.0"
     inkscape:pageopacity="0.0"
     inkscape:pageshadow="2"
     inkscape:zoom="0.38767791"
     inkscape:cx="1073.3856"
     inkscape:cy="-40.563009"
     inkscape:document-units="mm"
     inkscape:current-layer="layer1"
     showgrid="false"
     inkscape:pagecheckerboard="true"
     inkscape:showpageshadow="false"
     inkscape:window-width="1280"
     inkscape:window-height="984"
     inkscape:window-x="-4"
     inkscape:window-y="17"
     inkscape:window-maximized="1"
     inkscape:measure-start="1131.31,142.496"
     inkscape:measure-end="1132.9,142.724" />
  <metadata
     id="metadata5">
    <rdf:RDF>
      <cc:Work
         rdf:about="">
        <dc:format>image/svg+xml</dc:format>
        <dc:type
           rdf:resource="http://purl.org/dc/dcmitype/StillImage" />
        <dc:title></dc:title>
      </cc:Work>
    </rdf:RDF>
  </metadata>
  <g
     inkscape:label="Layer 1"
     inkscape:groupmode="layer"
     id="layer1"
     transform="translate(0,-47)">
    <path
       style="fill:#404040;fill-opacity:1;stroke:none;stroke-width:0.5415054px;stroke-linecap:butt;stroke-linejoin:miter;stroke-opacity:1"
       d="m 196.48176,149.29564 c -2.57222,2.44686 -4.07065,5.89333 -5.37188,9.19642 -1.27961,3.24832 -2.30485,10.21709 -2.30485,10.21709 L 188.9299,275.864 h 17.20211 c 0.56146,-25.85783 0.77668,-79.67694 1.18851,-102.86812 0.35009,-0.0163 0.30162,-2.57404 2.00566,-4.91924 0.68336,-0.94042 1.64815,-1.91932 2.82243,-2.69017 0.96711,-0.63484 2.59345,-1.15225 3.75918,-1.49631 2.75162,-0.81218 5.97853,-0.56828 6.51381,-0.5842 10.09776,-0.30027 16.62997,-0.33673 26.19387,-0.3107 1.69294,0.005 3.48014,5.1126 5.06671,7.86063 3.20553,0 14.08379,-0.40456 16.76023,-0.40456 0,-4.20876 0.0209,-5.67758 0.0248,-7.38106 v -19.85758 l -52.06766,0.256 c 0,0 -8.63163,-0.12501 -12.7195,1.0533 -3.3192,0.95687 -6.56622,2.74822 -9.19825,4.77365 z"
       id="path820"
       inkscape:connector-curvature="0"
       sodipodi:nodetypes="csccccssssscccccssc" />
    <path
       style="fill:#404040;fill-opacity:1;stroke:none;stroke-width:0.5415054px;stroke-linecap:butt;stroke-linejoin:miter;stroke-opacity:1"
       d="m 281.93137,276.43388 17.29823,-0.0303 c 2.3912,0 49.97912,-0.0337 56.18213,-0.0337 0,-6.26902 0.3096,-10.62647 0.3096,-16.99127 -6.68882,0 -46.33157,-0.0808 -56.44756,-0.0808 0,-7.37728 0.17856,-46.39488 0.38705,-65.6349 0.004,-0.40361 0.29956,-3.55624 2.49461,-4.78585 1.44094,-0.80719 5.64433,-0.59345 6.21409,-0.61058 l 68.35484,9.3e-4 0.16117,-19.8 -77.68894,-0.0125 -0.0138,-25.33768 -17.26819,0.008 0.0618,20.14632 c 0,13.36716 -0.045,92.88391 -0.045,113.16206 z"
       id="path822"
       inkscape:connector-curvature="0"
       sodipodi:nodetypes="cccccssccccccccc" />
    <path
       style="fill:#404040;fill-opacity:1;stroke:none;stroke-width:0.5415054px;stroke-linecap:butt;stroke-linejoin:miter;stroke-opacity:1"
       d="m 515.65392,143.21133 -19.42515,0.0935 -29.95734,47.48289 -29.90154,-47.3785 -18.34203,-0.0935 38.80641,64.15783 -38.8855,67.21399 18.29245,-0.0935 30.08291,-50.10857 30.03331,50.00418 19.37556,0.0935 -38.88599,-67.21398 z"
       id="path839"
       inkscape:connector-curvature="0"
       sodipodi:nodetypes="ccccccccccccc" />
    <path
       style="opacity:1;fill:#404040;fill-opacity:1;fill-rule:nonzero;stroke:none;stroke-width:0.72467065;stroke-miterlimit:4;stroke-dasharray:none;stroke-dashoffset:24.5;stroke-opacity:1"
       d="m 387.53956,143.07011 h 19.82901 V 276.6335 h -19.82901 z"
       id="rect858"
       inkscape:connector-curvature="0"
       sodipodi:nodetypes="ccccc" />
    <path
       sodipodi:nodetypes="csccsscsssscssccccccsssscccssc"
       inkscape:connector-curvature="0"
       id="path825"
       d="m 168.5982,149.29564 c 2.57222,2.44686 4.07065,5.89333 5.37188,9.19642 1.27961,3.24832 2.30485,10.21709 2.30485,10.21709 L 176.15006,275.864 c -25.7732,0.014 -49.95887,-0.038 -75.73204,-0.0476 -0.640777,-2.3e-4 -1.600541,-0.0803 -2.346358,-0.45996 -1.043074,-0.53092 -1.516921,-0.85913 -2.083098,-1.29862 -0.379437,-0.53564 -0.539547,-0.83174 -0.919614,-1.94316 -0.26661,-0.77964 -0.400307,-1.10684 -0.400917,-1.87717 -0.0102,-12.92991 -0.0489,-50.78033 -0.0572,-62.49793 -4.9e-4,-0.68374 0.0755,-1.28117 0.236107,-1.79521 0.1495,-0.47834 0.36973,-0.92201 0.665867,-1.18311 0.269797,-0.21412 0.703947,-0.49932 1.231184,-0.65919 0.505487,-0.15327 1.133954,-0.18995 1.697048,-0.19013 16.790461,-0.005 47.984811,-0.0444 60.076171,-0.0444 0,-3.64152 0.11364,24.19726 -0.193,17.90186 -7.8217,0 -35.02077,0.0174 -45.75336,0.0174 0,9.64197 -0.77866,25.16761 -0.77866,35.46261 13.39973,0 43.19546,-0.15679 46.88288,-0.15679 0,-5.33415 -0.39765,-54.15515 -0.91565,-84.09667 -0.35009,-0.0163 -0.30162,-2.57404 -2.00566,-4.91924 -0.68336,-0.94042 -1.64815,-1.91932 -2.82243,-2.69017 -0.96711,-0.63484 -2.59345,-1.15225 -3.75918,-1.49631 -2.75162,-0.81218 -5.97853,-0.56827 -6.51381,-0.5842 -16.7113,-0.49693 -32.35292,-0.27134 -48.045557,-0.23569 v -19.85758 l 52.067627,0.256 c 0,0 8.63163,-0.12501 12.7195,1.0533 3.3192,0.95687 6.36548,2.4255 9.19825,4.77365 z"
       style="fill:#404040;fill-opacity:1;stroke:none;stroke-width:0.5415054px;stroke-linecap:butt;stroke-linejoin:miter;stroke-opacity:1" />
    <path
       style="fill:#c8801b;fill-opacity:1;stroke:none;stroke-width:0.5415054px;stroke-linecap:butt;stroke-linejoin:miter;stroke-opacity:1"
       d="m 57.310293,97.966382 c -2.572205,2.446858 -5.128959,5.364178 -6.430183,8.667288 -1.279601,3.24834 -0.802645,11.76199 -0.802645,11.76199 L 49.497978,275.864 h 17.991678 c 0.561457,-25.85783 -0.08157,-142.12049 0.130171,-144.67229 0.14017,-1.68926 1.450981,-2.67774 2.697224,-5.29509 0.853978,-1.79353 2.457205,-4.51175 3.328375,-5.61365 0.839139,-1.06139 3.587463,-3.00835 5.155538,-3.82708 1.985255,-1.03654 5.127515,-1.94053 9.23285,-2.78497 4.088119,0 283.685666,-0.37798 299.378336,-0.34233 l 23.28334,-10.6206 -23.28334,-9.766223 -307.655043,0.256 c 0,0 -9.160749,-0.654177 -13.248595,0.524133 -3.319182,0.95687 -6.431528,2.186752 -9.198199,4.244482 -5e-6,1e-5 -2e-5,0 -2e-5,0 z"
       id="path831"
       inkscape:connector-curvature="0"
       sodipodi:nodetypes="cscccsssscccccssc" />
    <path
       sodipodi:nodetypes="cscccsssscccccssc"
       inkscape:connector-curvature="0"
       id="path833"
       d="m 40.376949,79.218001 c -2.572205,2.44686 -4.070626,5.89333 -5.37185,9.19642 -1.279601,3.24832 -2.304835,10.217088 -2.304835,10.217088 L 32.825131,275.864 h 17.202014 c 0.561457,-25.85783 -0.08157,-161.92722 0.130171,-164.47903 0.14017,-1.68927 0.546129,-3.97471 1.792372,-6.59208 0.853978,-1.79354 2.668337,-3.81805 3.539507,-4.919957 0.839139,-1.061394 3.776821,-3.407369 5.422707,-4.05562 2.19853,-0.86592 5.532738,-1.74456 9.638073,-2.588992 4.088119,0 254.073565,-0.27134 269.766235,-0.23569 l 19.05,-10.191402 -19.05,-9.666178 -278.021614,0.256 c 0,0 -8.631582,-0.12501 -12.719428,1.0533 -3.319182,0.95687 -6.32489,2.929194 -9.198199,4.77365 -6e-6,4e-6 -2e-5,0 -2e-5,0 z"
       style="fill:#c33a2e;fill-opacity:1;stroke:none;stroke-width:0.5415054px;stroke-linecap:butt;stroke-linejoin:miter;stroke-opacity:1" />
    <path
       sodipodi:nodetypes="csccccssssccccssc"
       inkscape:connector-curvature="0"
       id="path827"
       d="m 74.772804,119.13314 c -2.572205,2.44686 -3.874463,3.92627 -5.585126,7.03709 -1.520895,2.76574 -2.091559,6.02642 -2.091559,6.02642 L 67.220986,275.864 H 84.423 c 0.561457,-25.85783 0.776674,-109.83944 1.188504,-133.03062 0.350087,-0.0163 0.301617,-2.57404 2.005648,-4.91924 0.683357,-0.94042 1.648141,-1.91932 2.822415,-2.69017 0.967104,-0.63484 2.593435,-1.15225 3.759156,-1.49631 2.751605,-0.81218 5.978497,-0.56827 6.513777,-0.5842 16.7113,-0.49693 319.16126,-0.27134 334.85393,-0.23569 l 22.75416,-10.35994 -22.75416,-9.49766 -338.875979,0.256 c 0,0 -8.631582,-0.12501 -12.719428,1.05331 -3.319182,0.95687 -6.439474,2.63239 -9.198199,4.77366 z"
       style="fill:#348dab;fill-opacity:1;stroke:none;stroke-width:0.5415054px;stroke-linecap:butt;stroke-linejoin:miter;stroke-opacity:1" />
  </g>
</svg>
